<svg width="2812" height="1357" xmlns="http://www.w3.org/2000/svg" xmlns:xlink="http://www.w3.org/1999/xlink" xml:space="preserve" overflow="hidden"><defs><clipPath id="clip0"><rect x="332" y="637" width="2812" height="1357"/></clipPath></defs><g clip-path="url(#clip0)" transform="translate(-332 -637)"><path d="M337.791 1526.11 1263.19 1526.11 1263.19 1678.92 337.791 1678.92Z" fill="#BDD7EE" fill-rule="evenodd"/><path d="M1263.19 1526.11 2188.58 1526.11 2188.58 1678.92 1263.19 1678.92Z" fill="#BDD7EE" fill-rule="evenodd"/><path d="M2188.58 1526.11 3113.98 1526.11 3113.98 1678.92 2188.58 1678.92Z" fill="#BDD7EE" fill-rule="evenodd"/><path d="M1263.19 1523.81 1263.19 1685.79" stroke="#FFFFFF" stroke-width="4.58333" stroke-linejoin="round" stroke-miterlimit="10" fill="none" fill-rule="evenodd"/><path d="M2188.58 1523.81 2188.58 1685.79" stroke="#FFFFFF" stroke-width="4.58333" stroke-linejoin="round" stroke-miterlimit="10" fill="none" fill-rule="evenodd"/><path d="M337.791 1523.81 337.791 1685.79" stroke="#FFFFFF" stroke-width="4.58333" stroke-linejoin="round" stroke-miterlimit="10" fill="none" fill-rule="evenodd"/><path d="M3113.98 1523.81 3113.98 1685.79" stroke="#FFFFFF" stroke-width="4.58333" stroke-linejoin="round" stroke-miterlimit="10" fill="none" fill-rule="evenodd"/><path d="M335.499 1526.11 3116.27 1526.11" stroke="#FFFFFF" stroke-width="4.58333" stroke-linejoin="round" stroke-miterlimit="10" fill="none" fill-rule="evenodd"/><path d="M335.499 1678.92 3116.27 1678.92" stroke="#FFFFFF" stroke-width="13.75" stroke-linejoin="round" stroke-miterlimit="10" fill="none" fill-rule="evenodd"/><path d="M336.05 1681.36 1759.56 1681.36 1759.56 1852.69 336.05 1852.69Z" fill="#A6C8FF" fill-rule="evenodd"/><path d="M1759.56 1681.36 1834.73 1681.36 1834.73 1852.69 1759.56 1852.69Z" fill="#A6C8FF" fill-rule="evenodd"/><path d="M1834.73 1681.36 3112.24 1681.36 3112.24 1852.69 1834.73 1852.69Z" fill="#A6C8FF" fill-rule="evenodd"/><path d="M1759.56 1679.07 1759.56 1859.56" stroke="#FFFFFF" stroke-width="4.58333" stroke-linejoin="round" stroke-miterlimit="10" fill="none" fill-rule="evenodd"/><path d="M1834.73 1679.07 1834.73 1859.56" stroke="#FFFFFF" stroke-width="4.58333" stroke-linejoin="round" stroke-miterlimit="10" fill="none" fill-rule="evenodd"/><path d="M336.05 1679.07 336.05 1859.56" stroke="#FFFFFF" stroke-width="4.58333" stroke-linejoin="round" stroke-miterlimit="10" fill="none" fill-rule="evenodd"/><path d="M3112.24 1679.07 3112.24 1859.56" stroke="#FFFFFF" stroke-width="4.58333" stroke-linejoin="round" stroke-miterlimit="10" fill="none" fill-rule="evenodd"/><path d="M333.758 1681.36 3114.53 1681.36" stroke="#FFFFFF" stroke-width="4.58333" stroke-linejoin="round" stroke-miterlimit="10" fill="none" fill-rule="evenodd"/><path d="M333.758 1852.69 3114.53 1852.69" stroke="#FFFFFF" stroke-width="13.75" stroke-linejoin="round" stroke-miterlimit="10" fill="none" fill-rule="evenodd"/><g><g><g><path d="M1073.38 1757.47 1073.38 1715.88 1056.19 1715.88 1056.19 1722.75 1066.5 1722.75 1066.5 1729.63 1056.19 1729.63 1056.19 1736.5 1066.5 1736.5 1066.5 1757.47C1060.66 1758.84 1056.19 1764.34 1056.19 1770.88 1056.19 1778.44 1062.38 1784.63 1069.94 1784.63 1077.5 1784.63 1083.69 1778.44 1083.69 1770.88 1083.69 1764.34 1079.22 1759.19 1073.38 1757.47ZM1069.94 1777.75C1066.16 1777.75 1063.06 1774.66 1063.06 1770.88 1063.06 1767.09 1066.16 1764 1069.94 1764 1073.72 1764 1076.81 1767.09 1076.81 1770.88 1076.81 1774.66 1073.72 1777.75 1069.94 1777.75Z"/><path d="M1035.56 1815.56 1016.66 1804.56C1004.97 1797.69 997.75 1785.31 997.75 1771.91L997.75 1722.75C997.75 1718.97 1000.84 1715.88 1004.63 1715.88L1045.88 1715.88 1045.88 1722.75 1004.63 1722.75 1004.63 1771.91C1004.63 1782.91 1010.47 1793.22 1020.09 1798.72L1035.56 1808 1051.03 1798.72C1054.81 1796.31 1058.25 1793.56 1060.66 1789.78L1066.16 1793.56C1063.06 1798.03 1058.94 1801.81 1054.13 1804.56L1035.56 1815.56Z"/></g></g></g><text font-family="Calibri,Calibri_MSFontService,sans-serif" font-weight="400" font-size="55" transform="matrix(1 0 0 1 1138.27 1777)">Key Protect</text><g><g><g><path d="M717.875 1575.38C718.906 1577.09 720.281 1578.47 722.344 1579.5L726.812 1581.56 731.281 1579.5C734.719 1577.78 737.125 1574 737.125 1570.22L737.125 1554.75 726.812 1554.75 726.812 1547.88 744 1547.88 744 1570.22C744 1576.75 740.219 1582.94 734.031 1585.69L726.469 1589.12 719.25 1585.69C714.781 1583.62 711.687 1579.84 710.312 1575.38L717.875 1575.38Z"/><path d="M689 1561.62 716.5 1561.62 716.5 1568.5 689 1568.5Z"/><path d="M689 1547.88 716.5 1547.88 716.5 1554.75 689 1554.75Z"/><path d="M730.25 1596 730.25 1616.62 647.75 1616.62 647.75 1561.62 682.125 1561.62 682.125 1554.75 647.75 1554.75C643.969 1554.75 640.875 1557.84 640.875 1561.62L640.875 1616.62C640.875 1620.41 643.969 1623.5 647.75 1623.5L675.25 1623.5 675.25 1637.25 661.5 1637.25 661.5 1644.12 716.5 1644.12 716.5 1637.25 702.75 1637.25 702.75 1623.5 730.25 1623.5C734.031 1623.5 737.125 1620.41 737.125 1616.62L737.125 1596 730.25 1596ZM695.875 1637.25 682.125 1637.25 682.125 1623.5 695.875 1623.5 695.875 1637.25Z"/></g></g></g><g><g><g><path d="M1610.25 1599 1610.25 1619.63 1527.75 1619.63 1527.75 1564.63 1551.81 1564.63 1551.81 1557.75 1527.75 1557.75C1523.95 1557.75 1520.87 1560.83 1520.87 1564.63L1520.87 1619.63C1520.87 1623.42 1523.95 1626.5 1527.75 1626.5L1555.25 1626.5 1555.25 1640.25 1541.5 1640.25 1541.5 1647.13 1596.5 1647.13 1596.5 1640.25 1582.75 1640.25 1582.75 1626.5 1610.25 1626.5C1614.05 1626.5 1617.12 1623.42 1617.12 1619.63L1617.12 1599ZM1575.87 1640.25 1562.12 1640.25 1562.12 1626.5 1575.87 1626.5Z"/><path d="M1575.87 1605.88 1575.84 1605.88C1574.32 1605.86 1572.99 1604.84 1572.57 1603.38L1566.41 1581.81 1551.81 1581.81 1551.81 1574.94 1569 1574.94C1570.53 1574.94 1571.88 1575.95 1572.31 1577.43L1576 1590.35 1586.34 1556.74C1586.8 1555.31 1588.12 1554.33 1589.62 1554.31 1591.11 1554.29 1592.44 1555.25 1592.89 1556.66L1598.98 1574.94 1617.12 1574.94 1617.12 1581.81 1596.5 1581.81C1595.02 1581.81 1593.71 1580.87 1593.24 1579.46L1589.76 1569.01 1579.16 1603.45C1578.72 1604.89 1577.38 1605.87 1575.87 1605.88Z"/></g></g></g><text font-family="Calibri,Calibri_MSFontService,sans-serif" font-weight="400" font-size="55" transform="matrix(1 0 0 1 773.887 1613)">Logging</text><text font-family="Calibri,Calibri_MSFontService,sans-serif" font-weight="400" font-size="55" transform="matrix(1 0 0 1 1666.29 1615)">Monitoring</text><g><g><g><path d="M88.3751 50.5 88.3751 69.4375 12.625 69.4375 12.625 18.9375 50.5 18.9375 50.5 12.625 12.625 12.625C9.13871 12.625 6.3125 15.4512 6.3125 18.9375L6.3125 69.4375C6.3125 72.9239 9.13871 75.7501 12.625 75.7501L37.875 75.7501 37.875 88.3751 25.25 88.3751 25.25 94.6876 75.7501 94.6876 75.7501 88.3751 63.125 88.3751 63.125 75.7501 88.3751 75.7501C91.8615 75.7501 94.6876 72.9239 94.6876 69.4375L94.6876 50.5ZM56.8125 88.3751 44.1875 88.3751 44.1875 75.7501 56.8125 75.7501Z" transform="matrix(1.08911 0 0 1 2226 1561)"/><path d="M66.2813 47.3438 50.5 31.6888 55.5185 26.7335 66.2813 37.4016 89.6691 14.2031 94.6876 19.19 66.2813 47.3438Z" transform="matrix(1.08911 0 0 1 2226 1561)"/></g></g></g><text font-family="Calibri,Calibri_MSFontService,sans-serif" font-weight="400" font-size="55" transform="matrix(1 0 0 1 2363.73 1623)">Activity Tracker</text><rect x="336" y="909" width="1387" height="106" fill="#FFAFD2"/><path d="M334.454 1196.28 1259.85 1196.28 1259.85 1349.09 334.454 1349.09Z" fill="#D4BBFF" fill-rule="evenodd"/><path d="M1259.85 1196.28 2185.25 1196.28 2185.25 1349.09 1259.85 1349.09Z" fill="#D4BBFF" fill-rule="evenodd"/><path d="M2185.25 1196.28 3110.65 1196.28 3110.65 1349.09 2185.25 1349.09Z" fill="#D4BBFF" fill-rule="evenodd"/><path d="M1259.85 1193.99 1259.85 1355.97" stroke="#FFFFFF" stroke-width="4.58333" stroke-linejoin="round" stroke-miterlimit="10" fill="none" fill-rule="evenodd"/><path d="M2185.25 1193.99 2185.25 1355.97" stroke="#FFFFFF" stroke-width="4.58333" stroke-linejoin="round" stroke-miterlimit="10" fill="none" fill-rule="evenodd"/><path d="M334.454 1193.99 334.454 1355.97" stroke="#FFFFFF" stroke-width="4.58333" stroke-linejoin="round" stroke-miterlimit="10" fill="none" fill-rule="evenodd"/><path d="M3110.65 1193.99 3110.65 1355.97" stroke="#FFFFFF" stroke-width="4.58333" stroke-linejoin="round" stroke-miterlimit="10" fill="none" fill-rule="evenodd"/><path d="M332.163 1196.28 3112.94 1196.28" stroke="#FFFFFF" stroke-width="4.58333" stroke-linejoin="round" stroke-miterlimit="10" fill="none" fill-rule="evenodd"/><path d="M332.163 1349.09 3112.94 1349.09" stroke="#FFFFFF" stroke-width="13.75" stroke-linejoin="round" stroke-miterlimit="10" fill="none" fill-rule="evenodd"/><rect x="342" y="1386" width="2776" height="119" fill="#9DC3E6"/><g><g><g><path d="M2401.12 1777.88 2401.12 1796.78C2401.12 1801.94 2398.03 1806.41 2393.22 1808.81L2387.38 1811.56 2381.53 1808.81C2376.72 1806.75 2373.62 1801.94 2373.62 1796.78L2373.62 1777.88 2401.12 1777.88M2408 1771 2366.75 1771 2366.75 1796.78C2366.75 1804.34 2371.22 1811.56 2378.44 1815L2387.38 1819.12 2396.31 1815C2403.53 1811.56 2408 1804.69 2408 1796.78L2408 1771 2408 1771Z"/><path d="M2353 1801.94 2323.78 1801.94C2309.69 1801.94 2298 1790.25 2298 1776.16 2298 1763.44 2307.28 1753.12 2319.31 1750.72 2322.41 1734.56 2336.5 1722.88 2353 1722.88 2371.91 1722.88 2387.38 1738.34 2387.38 1757.25L2380.5 1757.25C2380.5 1742.12 2368.12 1729.75 2353 1729.75 2338.91 1729.75 2327.22 1740.41 2325.5 1754.16L2325.5 1757.25 2322.41 1757.25C2312.44 1757.94 2304.88 1766.19 2304.88 1776.16 2304.88 1786.47 2313.47 1795.06 2323.78 1795.06L2353 1795.06 2353 1801.94Z"/></g></g></g><text font-family="Calibri,Calibri_MSFontService,sans-serif" font-weight="400" font-size="55" transform="matrix(1 0 0 1 2440.98 1784)">Secrets Manager</text><g><g><g><path d="M55 44C55 42.075 54.45 40.15 53.35 38.5L62.425 29.425 58.575 25.575 49.5 34.65C47.85 33.55 45.925 33 44 33 42.075 33 40.15 33.55 38.5 34.65L29.425 25.575 25.575 29.425 34.65 38.5C33.55 40.15 33 42.075 33 44 33 45.925 33.55 47.85 34.65 49.5L25.575 58.575 29.425 62.425 38.5 53.35C40.15 54.45 42.075 55 44 55 45.925 55 47.85 54.45 49.5 53.35L58.575 62.425 62.425 58.575 53.35 49.5C54.45 47.85 55 45.925 55 44ZM44 49.5C40.975 49.5 38.5 47.025 38.5 44 38.5 40.975 40.975 38.5 44 38.5 47.025 38.5 49.5 40.975 49.5 44 49.5 47.025 47.025 49.5 44 49.5Z" transform="matrix(1 0 0 1.25 1656 1396)"/><path d="M71.5 46.75 88 46.75 88 41.25 82.225 41.25C80.85 21.175 64.35 5.5 44 5.5 22.825 5.5 5.5 22.825 5.5 44 5.5 65.175 22.825 82.5 44 82.5 58.3 82.5 70.675 74.8 77.275 63.25L72.6 60.5C66.825 70.4 56.375 77 44 77 25.85 77 11 62.15 11 44 11 25.85 25.85 11 44 11 61.325 11 75.35 24.475 76.725 41.25L71.5 41.25 71.5 46.75Z" transform="matrix(1 0 0 1.25 1656 1396)"/></g></g></g><text font-family="Calibri,Calibri_MSFontService,sans-serif" font-weight="400" font-size="55" transform="matrix(1 0 0 1 1850.44 1793)">SCC</text><rect x="1799" y="1685" width="163" height="160" fill="#A6C8FF"/><rect x="336" y="1859" width="2776" height="119" fill="#9DC3E6"/><text font-family="Calibri,Calibri_MSFontService,sans-serif" font-weight="400" font-size="55" transform="matrix(1 0 0 1 1643.88 1946)">Account Structure</text><rect x="1717" y="1685" width="246" height="160" fill="#A6C8FF"/><rect x="1110" y="1528" width="247" height="144" fill="#BED8EF"/><path d="M334.454 1043.85 1259.85 1043.85 1259.85 1196.66 334.454 1196.66Z" fill="#D4BBFF" fill-rule="evenodd"/><path d="M1259.85 1043.85 2185.25 1043.85 2185.25 1196.66 1259.85 1196.66Z" fill="#D4BBFF" fill-rule="evenodd"/><path d="M2185.25 1043.85 3110.64 1043.85 3110.64 1196.66 2185.25 1196.66Z" fill="#D4BBFF" fill-rule="evenodd"/><path d="M1259.85 1041.55 1259.85 1203.53" stroke="#FFFFFF" stroke-width="4.58333" stroke-linejoin="round" stroke-miterlimit="10" fill="none" fill-rule="evenodd"/><path d="M2185.25 1041.55 2185.25 1203.53" stroke="#FFFFFF" stroke-width="4.58333" stroke-linejoin="round" stroke-miterlimit="10" fill="none" fill-rule="evenodd"/><path d="M334.454 1041.55 334.454 1203.53" stroke="#FFFFFF" stroke-width="4.58333" stroke-linejoin="round" stroke-miterlimit="10" fill="none" fill-rule="evenodd"/><path d="M3110.64 1041.55 3110.64 1203.53" stroke="#FFFFFF" stroke-width="4.58333" stroke-linejoin="round" stroke-miterlimit="10" fill="none" fill-rule="evenodd"/><path d="M332.162 1043.85 3112.94 1043.85" stroke="#FFFFFF" stroke-width="4.58333" stroke-linejoin="round" stroke-miterlimit="10" fill="none" fill-rule="evenodd"/><path d="M332.162 1196.66 3112.94 1196.66" stroke="#FFFFFF" stroke-width="13.75" stroke-linejoin="round" stroke-miterlimit="10" fill="none" fill-rule="evenodd"/><text font-family="Calibri,Calibri_MSFontService,sans-serif" font-weight="400" font-size="55" transform="matrix(1 0 0 1 642.396 1134)">Watson Assistant</text><rect x="2042" y="1048" width="247" height="139" fill="#D4BBFF"/><text font-family="Calibri,Calibri_MSFontService,sans-serif" font-weight="400" font-size="55" transform="matrix(1 0 0 1 1432.11 1142)">Watson Governance</text><rect x="1737" y="909" width="1356" height="108" fill="#FFAFD2"/><text font-family="Calibri,Calibri_MSFontService,sans-serif" font-weight="400" font-size="55" transform="matrix(1 0 0 1 791.354 988)">CodeEngine</text><rect x="342" y="770" width="2762" height="112" fill="#FFAFD2"/><text font-family="Calibri,Calibri_MSFontService,sans-serif" font-weight="400" font-size="55" transform="matrix(1 0 0 1 1276.69 836)">ALM </text><text font-family="Calibri,Calibri_MSFontService,sans-serif" font-weight="400" font-size="55" transform="matrix(1 0 0 1 1391.27 836)">–</text><text font-family="Calibri,Calibri_MSFontService,sans-serif" font-weight="400" font-size="55" transform="matrix(1 0 0 1 1431.38 836)">Application Lifecycle Management (CI/CD)</text><rect x="344" y="637" width="2759" height="126" fill="#FFAFD2"/><text font-family="Calibri,Calibri_MSFontService,sans-serif" font-weight="400" font-size="55" transform="matrix(1 0 0 1 1308.42 722)">RAG Sample Application </text><text font-family="Calibri,Calibri_MSFontService,sans-serif" font-weight="400" font-size="55" transform="matrix(1 0 0 1 1859.33 722)">-</text><text font-family="Calibri,Calibri_MSFontService,sans-serif" font-weight="400" font-size="55" transform="matrix(1 0 0 1 1888.55 722)">(NodeJS, JS/HTML/CSS )</text><rect x="1186" y="1204" width="247" height="137" fill="#D4BBFF"/><rect x="2046" y="1202" width="247" height="141" fill="#D4BBFF"/><text font-family="Calibri,Calibri_MSFontService,sans-serif" font-style="italic" font-weight="400" font-size="55" transform="matrix(1 0 0 1 1614.12 1250)">watsonx.ai</text><text font-family="Calibri,Calibri_MSFontService,sans-serif" font-weight="400" font-size="55" transform="matrix(1 0 0 1 780.656 1290)">Watson Machine Learning</text><text font-family="Calibri,Calibri_MSFontService,sans-serif" font-weight="400" font-size="55" transform="matrix(1 0 0 1 2162.97 1292)">Watson Studio</text><text font-family="Calibri,Calibri_MSFontService,sans-serif" font-weight="400" font-size="55" transform="matrix(1 0 0 1 2217.85 1132)">Watson Discovery</text><text font-family="Calibri,Calibri_MSFontService,sans-serif" font-weight="400" font-size="55" transform="matrix(1 0 0 1 2623.22 1254)">COS Instance</text><text font-family="Calibri,Calibri_MSFontService,sans-serif" font-weight="400" font-size="55" transform="matrix(1 0 0 1 2774.26 1626)">COS Instance</text><text font-family="Calibri,Calibri_MSFontService,sans-serif" font-weight="400" font-size="55" transform="matrix(1 0 0 1 1784.41 1468)">SCC</text></g></svg>